# xmcd
#
# Track frame offsets: 
#        150
#        23137
#        46987
#        69970
#
# Disc length: 1244 seconds
#
# Revision: 13
# Processed by: cddbd v1.5.2PL0 Copyright (c) Steve Scherf et al.
# Submitted via: ExactAudioCopyFreeDBPlugin 1.0
#
DISCID=2904da04
DTITLE=May'n／中島 愛 - ライオン
DYEAR=2008
DGENRE=Anime
TTITLE0=ライオン
TTITLE1=シェリル・ノーム starring May'n - ノーザンクロス
TTITLE2=ライオン without vocals
TTITLE3=シェリル・ノーム starring May'n - ノーザンクロス without vocals
EXTD=YEAR: 2008
EXTT0=
EXTT1=
EXTT2=
EXTT3=
PLAYORDER=
